<svg id="Слой_6" data-name="Слой 6" xmlns="http://www.w3.org/2000/svg" viewBox="0 0 130 129.48"><defs><style>.cls-1{fill:#00596e;}.cls-2{fill:#54be57;}</style></defs><title>ic_01</title><path class="cls-1" d="M673.13,1193.49a5,5,0,0,1-5-5,53.85,53.85,0,0,1,71-51.35,5,5,0,1,1-3.19,9.54,43.8,43.8,0,0,0-57.71,41.76,5,5,0,0,1-5,5.05Z" transform="translate(-668.1 -1065.26)"/><path class="cls-2" d="M721.94,1128.77A31.76,31.76,0,1,1,753.7,1097,31.79,31.79,0,0,1,721.94,1128.77Zm0-53.45a21.7,21.7,0,1,0,21.7,21.7A21.72,21.72,0,0,0,721.94,1075.31Z" transform="translate(-668.1 -1065.26)"/><path class="cls-1" d="M784.93,1194.73h-28a13.19,13.19,0,0,1-13.18-13.18v-28a13.19,13.19,0,0,1,13.18-13.18h28a13.19,13.19,0,0,1,13.18,13.18v28A13.19,13.19,0,0,1,784.93,1194.73Zm-28-44.32a3.12,3.12,0,0,0-3.12,3.12v28a3.12,3.12,0,0,0,3.12,3.12h28a3.12,3.12,0,0,0,3.12-3.12v-28a3.12,3.12,0,0,0-3.12-3.12Z" transform="translate(-668.1 -1065.26)"/><path class="cls-2" d="M779.56,1162.52h-3.62v-3.62a5,5,0,0,0-10.06,0v3.62h-3.62a5,5,0,1,0,0,10.06h3.62v3.62a5,5,0,0,0,10.06,0v-3.62h3.62a5,5,0,1,0,0-10.06Z" transform="translate(-668.1 -1065.26)"/></svg>