<svg id="Слой_6" data-name="Слой 6" xmlns="http://www.w3.org/2000/svg" viewBox="0 0 130.35 127.81"><defs><style>.cls-1{fill:#54be57;}.cls-2{fill:#00596e;}</style></defs><title>ic_03</title><path class="cls-1" d="M695.8,1365.8a5,5,0,0,0-4.58-3.06h-4.95v-7.69a5,5,0,1,0-9.92,0v12.65a5,5,0,0,0,3.23,4.65l-8.53,8.55H669.7a5,5,0,0,0-7.62-6.27l-7.73,7.73h0l-47.07,47.07a5,5,0,1,0,7,7l45.61-45.61h13.19a5,5,0,0,0,3.51-1.46l18.11-18.16A5,5,0,0,0,695.8,1365.8Z" transform="translate(-565.83 -1350.09)"/><path class="cls-2" d="M610.79,1477.9a45,45,0,1,1,0-89.92,44.55,44.55,0,0,1,19.52,4.45,5,5,0,1,1-4.35,9,34.62,34.62,0,0,0-15.18-3.46,35,35,0,1,0,35,35,34.56,34.56,0,0,0-3.93-16.12,5,5,0,0,1,8.87-4.62,45,45,0,0,1-39.9,65.7Z" transform="translate(-565.83 -1350.09)"/><path class="cls-2" d="M610.79,1463.36a30.42,30.42,0,1,1,7.66-59.87,4.52,4.52,0,0,1-2.27,8.75,21.36,21.36,0,1,0,15,14.29,4.52,4.52,0,0,1,8.62-2.71,30.44,30.44,0,0,1-29,39.55Z" transform="translate(-565.83 -1350.09)"/></svg>