<svg id="Слой_6" data-name="Слой 6" xmlns="http://www.w3.org/2000/svg" viewBox="0 0 140 98.85"><defs><style>.cls-1{fill:#00596e;}.cls-2{fill:#54be57;}</style></defs><title>ic_04</title><path class="cls-1" d="M280.15,1179.42a11.55,11.55,0,0,0,11.54-11.54v-77.31H295a5,5,0,0,0,0-10H165a5,5,0,1,0,0,10h3.31v77.31a11.55,11.55,0,0,0,11.54,11.54m101.83-11.54a1.54,1.54,0,0,1-1.54,1.54H179.86a1.54,1.54,0,0,1-1.54-1.54v-77.31H281.69Z" transform="translate(-160 -1080.57)"/><path class="cls-2" d="M201.73,1125.12a5,5,0,0,0-1-.1,7.7,7.7,0,1,1,7.7-7.7,4.94,4.94,0,0,0,9.87,0,17.61,17.61,0,0,0-12.64-16.87v-1.68a4.94,4.94,0,0,0-9.87,0v1.68a17.57,17.57,0,0,0,3.92,34.4,4.94,4.94,0,0,0,1,.11,7.7,7.7,0,1,1-7.7,7.7,4.94,4.94,0,0,0-9.87,0,17.61,17.61,0,0,0,12.64,16.87v1.68a4.94,4.94,0,1,0,9.87,0v-1.68a17.57,17.57,0,0,0-4-34.41Z" transform="translate(-160 -1080.57)"/><path class="cls-2" d="M222.42,1164.06a5,5,0,0,1-3.54-8.54l24.5-24.5a5,5,0,0,1,7.07,0l7.51,7.51,10.33-10.33a5,5,0,0,1,7.07,7.07l-13.87,13.87a5,5,0,0,1-7.07,0l-7.51-7.51-21,21A5,5,0,0,1,222.42,1164.06Z" transform="translate(-160 -1080.57)"/></svg>