<svg id="Слой_6" data-name="Слой 6" xmlns="http://www.w3.org/2000/svg" viewBox="0 0 136 105.19"><defs><style>.cls-1{fill:#54be57;}.cls-2{fill:#00596e;}</style></defs><title>ic_02</title><path class="cls-1" d="M390.84,1400.67a17.59,17.59,0,0,0-10-2.67,33.43,33.43,0,0,0-6.59.71v-9.37a5.2,5.2,0,0,0-5.19-5.19h-9.94c1.1-5.06,1.53-11.66-1.73-16.59-1.86-2.81-5.65-6.17-13.11-6.17s-11.29,3.35-13.18,6.16c-3.34,5-3,11.59-1.95,16.66a5.19,5.19,0,0,0,.89,10.3h6a5.19,5.19,0,0,0,4.81-7.14c-1.61-4-3.08-11.16-1.15-14,.26-.39,1.07-1.59,4.58-1.59s4.21,1.14,4.46,1.51c1.94,2.91,0,10.57-1.42,14a5.19,5.19,0,0,0,4.78,7.21h11.78v11.09a5.19,5.19,0,0,0,7.14,4.81,29.94,29.94,0,0,1,9.93-2.06,7.43,7.43,0,0,1,4.1.91c.39.26,1.59,1.07,1.59,4.58s-1.14,4.21-1.52,4.46a6.92,6.92,0,0,1-3.77.83,30.48,30.48,0,0,1-10.26-2.24,5.19,5.19,0,0,0-7.21,4.78v11.78H352.09a5.19,5.19,0,0,0-4.78,7.2c1.68,4,3.29,11.22,1.42,14-.25.37-1,1.52-4.46,1.52s-4.31-1.19-4.57-1.58c-1.92-2.84-.45-10.05,1.15-14a5.19,5.19,0,0,0-4.81-7.14h-5.87a5.19,5.19,0,0,0-1,10.28c-1,5.07-1.4,11.73,1.94,16.69,1.89,2.81,5.72,6.16,13.18,6.16s11.25-3.35,13.11-6.17c3.26-4.93,2.84-11.52,1.73-16.59h9.94a5.2,5.2,0,0,0,5.19-5.19v-9.94a32.91,32.91,0,0,0,7,.81,17.13,17.13,0,0,0,9.61-2.54c2.81-1.86,6.17-5.65,6.17-13.11S393.65,1402.57,390.84,1400.67Z" transform="translate(-261 -1361.4)"/><path class="cls-2" d="M337.4,1400.67a17.59,17.59,0,0,0-10-2.67,33.43,33.43,0,0,0-6.59.71v-9.37a5.2,5.2,0,0,0-5.19-5.19h-9.94c1.1-5.06,1.53-11.66-1.73-16.59-1.86-2.81-5.65-6.17-13.11-6.17s-11.29,3.35-13.18,6.16c-3.32,4.93-3,11.53-2,16.59h-9.49a5.2,5.2,0,0,0-5.19,5.19v49.31a5.2,5.2,0,0,0,5.19,5.19h9.49c-1,5.06-1.35,11.66,2,16.59,1.89,2.81,5.72,6.16,13.18,6.16s11.25-3.35,13.11-6.17c3.26-4.93,2.84-11.52,1.73-16.59h9.94a5.2,5.2,0,0,0,5.19-5.19v-9.94a32.91,32.91,0,0,0,7,.81,17.13,17.13,0,0,0,9.61-2.54c2.81-1.86,6.17-5.65,6.17-13.11S340.22,1402.57,337.4,1400.67Zm-43.07,35.1a5.18,5.18,0,0,0-.46,4.89c1.68,4,3.29,11.22,1.42,14-.25.37-1,1.52-4.46,1.52s-4.31-1.19-4.57-1.58c-1.92-2.84-.45-10.05,1.15-14a5.19,5.19,0,0,0-4.81-7.14H271.38v-38.93H282.6a5.19,5.19,0,0,0,4.81-7.14c-1.61-4-3.08-11.16-1.15-14,.26-.39,1.07-1.59,4.58-1.59s4.21,1.14,4.46,1.51c1.94,2.91,0,10.57-1.42,14a5.19,5.19,0,0,0,4.78,7.21h11.78v11.09a5.19,5.19,0,0,0,7.14,4.81,29.93,29.93,0,0,1,9.93-2.06,7.43,7.43,0,0,1,4.1.91c.39.26,1.59,1.07,1.59,4.58s-1.14,4.21-1.52,4.46a6.92,6.92,0,0,1-3.77.83,30.48,30.48,0,0,1-10.26-2.24,5.19,5.19,0,0,0-7.21,4.78v11.78H298.66A5.18,5.18,0,0,0,294.34,1435.78Z" transform="translate(-261 -1361.4)"/></svg>