<svg id="Слой_6" data-name="Слой 6" xmlns="http://www.w3.org/2000/svg" viewBox="0 0 103.31 130"><defs><style>.cls-1{fill:#00596e;}.cls-2{fill:#54be57;}</style></defs><title>ic_05</title><path class="cls-1" d="M483,908.25c16.83,13,32.1,18.36,41.57,20.53-.17,5.28-.6,13.8-1.59,27.32-2.52,35.59-29,54.12-40,60.29-11-6.18-37.46-24.7-40-60.32-1-13.5-1.42-22-1.59-27.29,9.46-2.16,24.73-7.48,41.57-20.53M483,897a5.51,5.51,0,0,0-3.5,1.25c-18.89,15.48-35.78,20.08-43.56,21.43a5.56,5.56,0,0,0-4.6,5.58c.07,4.91.44,14.26,1.7,31.54,3.08,43.55,37.65,64.51,47.4,69.58a5.52,5.52,0,0,0,5.1,0c9.75-5.07,44.32-26,47.4-69.58,1.27-17.27,1.63-26.63,1.7-31.54a5.56,5.56,0,0,0-4.6-5.58c-7.77-1.36-24.67-6-43.56-21.43A5.51,5.51,0,0,0,483,897Z" transform="translate(-431.35 -897)"/><path class="cls-2" d="M477.44,977.93a5.15,5.15,0,0,1-3.65-1.5l-10.22-10.15a5.16,5.16,0,1,1,7.27-7.32l6.56,6.51,17.74-17.86a5.16,5.16,0,1,1,7.32,7.27L481.09,976.4A5.15,5.15,0,0,1,477.44,977.93Z" transform="translate(-431.35 -897)"/></svg>